<svg width="26" height="26" viewBox="0 0 26 26" fill="none" xmlns="http://www.w3.org/2000/svg">
<path d="M14.149 0.47595C13.5144 -0.15865 12.4855 -0.15865 11.8509 0.47595L0.47595 11.8509C-0.15865 12.4855 -0.15865 13.5144 0.47595 14.149C1.11055 14.7836 2.13944 14.7836 2.77404 14.149L3.24999 13.673V24.3749C3.24999 25.2724 3.97752 25.9999 4.87498 25.9999H8.12497C9.02243 25.9999 9.74996 25.2724 9.74996 24.3749V21.1249C9.74996 20.2275 10.4775 19.4999 11.375 19.4999H14.6249C15.5224 19.4999 16.2499 20.2275 16.2499 21.1249V24.3749C16.2499 25.2724 16.9775 25.9999 17.8749 25.9999H21.1249C22.0224 25.9999 22.7499 25.2724 22.7499 24.3749V13.673L23.2259 14.149C23.8605 14.7836 24.8894 14.7836 25.5239 14.149C26.1585 13.5144 26.1585 12.4855 25.5239 11.8509L14.149 0.47595Z" fill="#504EC3"/>
</svg>
