<svg width="13" height="9" viewBox="0 0 13 9" fill="none" xmlns="http://www.w3.org/2000/svg">
<path d="M13 4.78438C12.598 4.58335 12.0351 4.26171 11.3114 3.85967C8.97953 2.4927 8.65789 1.92983 6.96929 1.08553C5.88376 0.522661 4.75803 0 3.23024 0C2.42615 0 1.1798 0.040206 0.496319 0.924712C0.0138609 1.56799 -0.187165 2.57311 0.214883 3.21639C0.536522 3.73905 1.05918 3.65864 2.0241 4.34212C2.58697 4.74417 2.8282 5.10602 3.10963 5.38745C4.03434 6.35237 5.24048 6.6338 7.29093 7.15646C8.41667 7.43789 10.1053 7.92035 12.3567 8.56363C12.5578 7.31728 12.7588 6.03073 13 4.78438Z" fill="white"/>
</svg>
