<svg width="9" height="10" viewBox="0 0 9 10" fill="none" xmlns="http://www.w3.org/2000/svg">
<path d="M2.46158 1.20384C2.24179 1.46758 1.89014 1.81924 1.53848 2.25881C0.879133 3.00608 0.703317 3.31377 0.615404 3.44564C0.219794 4.10499 0 4.41269 0 4.85226C0 4.94017 8.06967e-06 5.68744 0.571445 6.21492C1.14288 6.69845 2.02201 6.7424 2.76928 6.34679C2.98906 6.69844 3.2528 7.26989 3.16488 7.92924C3.07697 8.85233 2.41762 9.42376 2.68136 9.77542C2.81323 9.95124 3.07697 9.95124 3.42863 9.9952C4.17589 10.0392 4.74732 9.77542 5.09898 9.64355C5.84624 9.2919 6.37372 8.98419 7.16494 8.45671C8.08803 7.84132 8.74739 7.40176 8.96717 7.26989C9.01113 6.83032 9.01112 6.25888 8.87925 5.55557C8.83529 5.24787 8.61551 4.32478 7.47263 2.47859C6.54954 0.984062 6.06603 0.236796 5.45064 0.0609689C4.04402 -0.290686 2.72532 0.984051 2.46158 1.20384Z" fill="white"/>
</svg>
