<svg width="60" height="40" viewBox="0 0 60 40" fill="none" xmlns="http://www.w3.org/2000/svg">
<path d="M50.0084 0.00902761C49.4016 0.089931 48.7139 0.737161 47.7431 1.66755C45.316 4.01375 44.3452 6.64311 44.1429 7.12853C43.1316 9.79834 39.8146 15.5829 31.7647 27.4757C27.9622 27.7184 24.0384 27.9207 19.9123 27.9612C13.3592 28.0825 7.17006 27.9207 1.34502 27.5971C1.0214 28.0016 0.576439 28.6488 0.293277 29.5388C-0.151692 30.9141 0.0101111 32.0872 0.131466 32.6535C3.16534 33.7053 6.40148 34.6761 9.79942 35.5661C17.6471 37.6291 24.9284 38.8427 31.522 39.5708C32.4524 39.5708 33.7468 39.4899 35.2435 39.2067C36.1335 39.0449 37.9943 38.6 40.9472 37.1437C42.0799 36.5774 43.6575 35.7279 48.5521 32.2086C50.4938 30.7928 52.1523 29.6197 53.3659 28.6893C55.5907 26.9499 57.7751 25.2104 60 23.471C54.8222 4.33736 51.8287 -0.233683 50.0084 0.00902761Z" fill="#504EC3"/>
</svg>
