<svg width="43" height="59" viewBox="0 0 43 59" fill="none" xmlns="http://www.w3.org/2000/svg">
<path d="M3.88147 1.48813C3.04115 2.88866 2.08079 4.72935 1.3205 7.01021C0.360143 9.93131 0.0800301 12.4923 0 14.413C1.16044 18.3745 2.36089 22.416 3.48131 26.4575C6.08229 35.701 8.52321 44.7844 10.8041 53.7478C11.7644 54.6681 13.245 55.9886 15.3658 57.069C19.6874 59.2699 23.7689 59.0698 26.61 58.9097C28.8909 58.7897 32.4522 58.3495 36.5338 56.7089C37.6142 51.627 38.4545 47.1853 39.0547 43.544C40.2151 36.6614 41.4556 29.2186 42.0158 19.615C42.3359 14.453 42.3359 10.0113 42.2959 6.49001C40.6153 5.6497 38.2944 4.60931 35.4533 3.60893C32.4122 2.52852 27.1702 0.687833 20.1676 0.167637C13.8852 -0.352559 8.32314 0.407723 3.88147 1.48813Z" fill="#504EC3"/>
</svg>
