<svg width="12" height="14" viewBox="0 0 12 14" fill="none" xmlns="http://www.w3.org/2000/svg">
<path d="M1.86569 0.987452C1.50548 1.34766 1.30537 1.66784 0.945161 2.26819C0.665 2.74846 0.344816 3.34881 0.144701 4.18929C0.0646548 4.5495 -0.175491 5.63012 0.22474 6.91086C0.745039 8.63185 2.02578 9.51236 2.34597 9.7525C3.58668 10.593 4.82739 10.673 5.30767 10.673C5.42774 10.8331 5.5478 10.9932 5.62785 11.1533C5.46776 11.1533 4.98749 11.1533 4.54723 11.4735C4.18703 11.7536 3.82682 12.2739 3.94689 12.8743C4.06696 13.4346 4.54723 13.7148 4.6673 13.7948C4.86741 13.9149 5.3477 14.115 6.3883 13.9149C7.02866 13.7948 8.06926 13.4346 9.35 12.394C10.0304 11.8337 11.3511 10.5129 11.111 10.1127C11.031 10.0327 10.7508 9.75249 8.54954 10.673C8.3094 10.3929 8.02923 9.95261 8.06926 9.51236C8.1493 8.99206 8.62958 8.75192 9.06983 8.27164C9.47006 7.87141 9.91031 7.19102 10.0704 6.03035C9.43004 5.95031 8.70962 5.71017 8.22935 5.18987C7.78909 4.70959 7.78909 4.26934 7.22877 2.58837C6.66845 0.907406 6.42832 0.627244 6.18818 0.467152C5.54781 -0.0131243 4.8274 0.0269024 4.38714 0.0269024C4.14701 -0.0531436 2.86626 -0.013123 1.86569 0.987452Z" fill="white"/>
</svg>
