<svg width="9" height="7" viewBox="0 0 9 7" fill="none" xmlns="http://www.w3.org/2000/svg">
<path d="M0.231352 1.50618C1.2947 0.810911 2.76704 -0.170646 4.15757 0.647316C5.01643 1.13809 5.26181 2.11965 5.4663 2.97851C5.71169 3.91917 5.83438 4.94162 6.48875 5.67778C6.93863 6.20946 8.53366 7.19101 8.98354 6.29126C9.06533 6.12766 8.81994 5.96407 8.73815 6.12767C7.26582 6.08677 6.40696 5.4733 6.12067 4.28725C6.03888 4.04186 5.99798 3.83737 5.91618 3.59198C5.79349 3.10121 5.71169 2.65133 5.5481 2.16055C5.34361 1.58798 5.09822 1.0154 4.64834 0.606422C3.21691 -0.661419 1.3765 0.320133 0.0677627 1.17899C-0.0958296 1.34259 0.0677602 1.58798 0.231352 1.50618Z" fill="#180E25"/>
</svg>
