<svg width="14" height="10" viewBox="0 0 14 10" fill="none" xmlns="http://www.w3.org/2000/svg">
<path d="M0 8.97465C0.128834 9.10348 0.300611 9.31821 0.601225 9.44704C1.20245 9.7906 1.84662 9.70471 2.06135 9.66177C2.19018 9.10348 2.36196 8.33047 2.66257 7.47157C3.22085 5.88261 3.60736 4.7231 4.63804 3.64948C5.06748 3.22003 6.44172 1.71696 8.37424 1.71696C8.84663 1.71696 9.79142 1.71695 10.4785 2.44702C11.2086 3.22002 11.0798 4.25071 11.0798 4.46543C11.2515 4.59427 11.681 4.89488 12.2822 4.89488C13.3988 4.85194 13.9571 3.82126 14 3.77831C13.9141 3.34886 13.6994 2.70469 13.2699 2.06052C12.2393 0.600389 10.6503 0.25683 10.092 0.127995C8.67485 -0.172619 7.55828 0.127992 6.91411 0.299772C4.72392 0.901 3.39264 2.31819 2.79141 2.96236C0.730062 5.28138 0.171779 7.81513 0 8.97465Z" fill="white"/>
</svg>
