<svg width="12" height="8" viewBox="0 0 12 8" fill="none" xmlns="http://www.w3.org/2000/svg">
<path d="M1.22591 3.55504C2.26606 3.72839 2.82947 1.64811 4.86642 1.30139C5.16979 1.25805 5.9499 1.12803 6.64333 1.51809C7.51012 1.99482 7.85684 2.94829 8.20355 3.94509C8.63694 5.24528 8.42025 5.50531 8.94033 6.3721C9.20036 6.76215 9.59041 7.41224 10.4139 7.71562C11.1073 7.93232 11.714 7.8023 11.9741 7.71562C12.0174 7.19555 12.0174 6.50211 11.8874 5.63533C11.714 4.7252 11.4973 3.295 10.3705 2.12484C9.41705 1.08469 8.24689 0.737981 7.25008 0.477945C4.60638 -0.258824 0.662508 -0.258827 0.0557575 1.30139C-0.204279 2.0815 0.489143 3.42502 1.22591 3.55504Z" fill="#180E25"/>
</svg>
