<svg width="19" height="85" viewBox="0 0 19 85" fill="none" xmlns="http://www.w3.org/2000/svg">
<path d="M2.99879 6.09128C2.10852 7.73124 1.82739 9.18378 1.63996 10.074C1.1714 12.4637 1.45255 13.9162 1.54626 16.0716C1.63997 18.9767 1.26511 20.4761 0.890263 23.4749C-2.8487e-06 30.6438 0 38.7968 0 46.5749C0 53.3221 0.234283 58.4294 0.281139 59.9757C0.562276 66.3481 1.17141 74.5948 2.48338 84.2471C2.67081 84.4345 3.37364 84.9968 4.45133 84.9968C5.43531 85.0437 6.13815 84.5751 6.32557 84.4345C6.46614 83.7317 6.70042 82.7009 6.98156 81.3889C8.1061 76.1879 8.85581 72.7674 9.41808 70.1435C11.1518 62.2716 12.042 57.8203 12.8386 53.1816C13.1666 51.2136 13.6351 48.2148 13.3071 44.3258C13.1197 42.2641 12.7917 40.6242 12.5574 39.4528C12.698 38.6094 12.8854 37.3442 13.1666 35.8448C13.5414 33.5958 15.4157 24.5994 15.6968 23.0532C17.9927 11.8077 16.5871 16.3059 17.6648 11.6203C17.9459 10.4489 18.555 7.91867 17.8053 4.91988C17.1962 2.48337 16.1654 1.4994 15.8842 1.26512C14.3848 5.69739e-06 12.5574 0 11.8077 0C9.23066 0 7.40327 1.35882 6.37243 2.10852C5.90387 2.43651 4.2639 3.74848 2.99879 6.09128Z" fill="#DEDC52"/>
</svg>
