<svg width="14" height="14" viewBox="0 0 14 14" fill="none" xmlns="http://www.w3.org/2000/svg">
<path d="M3.80971 12.5671C2.54187 12.0795 1.27404 10.6654 1.4691 9.15372C2.00549 5.15516 3.85848 7.73959 4.8825 7.98341C5.80899 8.17846 6.68673 8.61733 7.56446 7.98341C8.2959 7.44702 8.39344 6.66681 8.24715 5.78908C8.10086 4.81382 7.41818 3.83856 7.9058 2.81454C9.51498 -0.452569 11.9043 2.91206 12.587 4.37495C12.9771 5.25268 14.245 4.47247 13.8549 3.6435C12.8309 1.44917 10.2952 -1.23278 7.71074 0.620214C6.93053 1.15661 6.49167 2.08309 6.34539 2.96083C6.24786 3.49722 6.24786 3.98485 6.34539 4.52124C6.44291 4.96011 6.54043 5.39898 6.73548 5.78908C6.24785 6.86186 5.61394 7.00815 4.8825 6.27671C2.73693 5.25269 0.640132 5.74031 0.10374 8.32474C-0.432652 10.8116 1.17652 13.0547 3.41961 13.9325C4.29734 14.3226 4.68744 12.9085 3.80971 12.5671Z" fill="#504EC3"/>
</svg>
