<svg width="11" height="8" viewBox="0 0 11 8" fill="none" xmlns="http://www.w3.org/2000/svg">
<path d="M0.316109 7.301C1.21471 5.55372 2.01348 2.95777 3.41131 1.46011C4.85906 -0.0874754 6.55641 1.06074 7.80447 1.90942C8.25378 2.20895 11.349 5.30411 9.402 5.0545C8.50339 4.95466 7.55487 3.65669 6.45658 4.30567C6.10712 4.50536 6.20695 4.60521 6.00726 4.90474C5.90742 5.00459 5.95735 5.20427 5.90743 5.30411C5.45813 6.55217 4.85905 7.60055 3.36138 7.60055C3.11177 7.60055 3.11177 7.95 3.36138 7.99992C4.25998 7.99992 5.00882 7.70039 5.60789 7.00148C5.90742 6.65202 5.90743 6.35249 6.15704 6.00304C6.20696 5.10444 6.85594 4.70506 8.00416 4.75498C8.55331 4.95467 9.00262 5.20427 9.45192 5.55372C10.7 5.90318 11.0994 5.30413 10.5003 4.106C9.95114 3.05764 9.00261 2.25889 8.05409 1.6099C7.30525 1.11068 5.60789 -0.137379 4.60944 0.012387C3.81068 0.112231 3.16169 1.21052 2.81223 1.85951C1.76386 3.55686 0.9651 5.40396 0.0664965 7.15124C-0.133193 7.301 0.166341 7.50069 0.316109 7.301Z" fill="#180E25"/>
</svg>
