<svg width="10" height="6" viewBox="0 0 10 6" fill="none" xmlns="http://www.w3.org/2000/svg">
<path d="M0.31615 1.57533C1.73556 0.0580264 3.3018 0.449585 4.86804 1.52638C5.99377 2.3095 7.07056 3.19052 8.04947 4.07153C9.56676 5.442 8.53892 5.05044 6.97267 4.75676C5.50432 4.46309 4.08492 3.97365 2.66551 3.38631C2.56762 3.33736 2.37184 3.3863 2.37184 3.53313C2.42079 4.70782 2.95918 5.442 3.98703 5.98039C4.18281 6.07828 4.37859 5.78461 4.18281 5.68672C3.39969 5.39305 3.05707 4.85465 3.10602 3.97364C3.3018 4.07153 3.54652 4.16942 3.7423 4.21836C4.32964 4.26731 5.06382 4.65888 5.60221 4.80571C6.87479 5.14833 8.1963 5.3441 9.51782 5.44199C9.66465 5.44199 9.76254 5.24623 9.66465 5.14833C7.95158 3.43525 5.94483 1.57533 3.79125 0.400646C2.22501 -0.431423 1.14822 0.106972 0.0224793 1.3306C-0.0754108 1.47744 0.169315 1.72216 0.31615 1.57533Z" fill="#180E25"/>
</svg>
