<svg width="66" height="79" viewBox="0 0 66 79" fill="none" xmlns="http://www.w3.org/2000/svg">
<path d="M0.333269 78.3667C4.46541 63.9042 8.87929 49.4887 14.6549 35.5897C17.6131 28.4523 20.947 21.4559 24.7974 14.7412C26.6287 11.5012 28.6009 8.30816 30.7139 5.20906C31.7 3.75342 32.8739 1.68735 34.5643 0.889093C37.4286 -0.472635 40.293 1.21779 42.8755 2.43865C50.9989 6.19514 58.6058 10.8908 65.6962 16.3846C65.884 16.5255 66.1188 16.2907 65.931 16.1498C59.498 11.1725 52.5955 6.80557 45.3173 3.23691C42.5468 1.87518 38.5556 -0.801325 35.3156 0.23171C32.5921 1.07692 30.9487 4.26994 29.493 6.47688C20.4305 20.282 13.8097 35.5897 8.40972 51.1791C5.31062 60.1477 2.58717 69.2103 0.00457747 78.3198C-0.0423787 78.5076 0.286313 78.6015 0.333269 78.3667Z" fill="#180E25"/>
</svg>
