<svg width="8" height="17" viewBox="0 0 8 17" fill="none" xmlns="http://www.w3.org/2000/svg">
<path d="M0.322015 15.9023C0.275245 15.154 0.18171 14.1719 0.134941 13.0026C-0.00536732 10.7109 -0.098903 9.21431 0.181713 7.3903C0.36879 5.98722 0.6494 5.19214 1.2574 4.67768C1.77186 4.25675 2.42664 4.06967 2.61372 4.0229C3.22172 3.8826 3.73618 3.92936 4.39095 4.0229C4.90541 4.06967 5.37311 4.20998 5.65372 4.25675C6.16819 2.15213 6.82294 -0.046036 7.33741 0.000733438C7.89864 0.0475029 7.99219 2.76013 7.99219 3.22782C8.03896 4.91152 7.89864 7.34353 6.96326 10.2432C6.91649 10.898 6.86973 11.8802 6.58911 13.0026C6.21496 14.7331 5.98111 15.8088 5.18603 16.37C3.45557 17.7263 0.462323 15.9959 0.322015 15.9023Z" fill="white"/>
</svg>
