<svg width="20" height="15" viewBox="0 0 20 15" fill="none" xmlns="http://www.w3.org/2000/svg">
<path d="M2.93321 6.42458C3.12606 6.1353 4.66885 4.15859 6.64557 3.77289C7.17591 3.67646 8.23658 3.48361 9.10441 4.06216C9.39369 4.25502 9.87582 4.73714 10.4544 7.87095C10.8401 10.0405 10.6954 10.2816 11.0811 11.5351C11.4668 12.7404 11.8525 13.8493 12.9614 14.5243C13.1061 14.6207 14.0703 15.1511 15.2274 14.9582C15.7577 14.8618 16.047 14.6689 17.0595 14.0904C17.8791 13.6565 18.5541 13.319 19.0362 13.0779C19.2773 12.4994 19.5665 11.6797 19.7112 10.6673C19.8076 10.0887 19.8558 9.12448 19.7112 7.96738C19.6147 7.48526 19.2773 5.41212 17.8791 3.72468C17.1077 2.80864 15.806 1.74796 12.3829 0.92835C8.42944 -0.0359007 1.00471 -0.807304 0.0886748 1.60332C-0.2006 2.42294 0.0886718 3.77289 2.93321 6.42458Z" fill="#180E25"/>
</svg>
