<svg width="80" height="87" viewBox="0 0 80 87" fill="none" xmlns="http://www.w3.org/2000/svg">
<path d="M0 82.0282C2.67407 73.2554 5.34815 66.0307 7.50617 60.7295C10.2272 53.9739 12.6198 48.8603 17.4518 38.6332C20.5951 31.9714 23.1284 26.9517 26.0839 21.4628C33.0741 8.51464 29.837 16.7714 35.7481 6.73193C36.5926 5.27761 38.1407 2.60354 41.237 1.1023C43.7703 -0.117449 46.2568 -0.023616 47.1481 0.0232976C48.7432 0.117125 50.2913 0.492429 54.279 2.41589C56.9061 3.68255 59.4395 4.90231 62.2543 6.77885C70.1358 11.9863 76.6098 19.8208 78.5333 22.1665C79.4716 24.3714 80.9259 28.922 79.1901 33.4257C76.4222 40.6504 66.4765 45.248 55.1703 42.8554C52.637 45.8109 48.7432 50.2677 43.8642 55.7097C38.7506 61.3862 35.842 64.3887 29.5555 71.1912C26.1778 74.8504 21.2988 80.1517 15.3876 86.6726C14.3555 86.7665 12.9012 86.8603 11.1654 86.8134C8.20987 86.7196 6.2395 86.6727 4.12839 85.6406C3.14321 85.1245 1.50123 84.1393 0 82.0282Z" fill="white"/>
</svg>
