<svg width="3" height="9" viewBox="0 0 3 9" fill="none" xmlns="http://www.w3.org/2000/svg">
<path d="M0.341242 4.67098C0.485707 3.85236 0.678336 3.03373 0.967266 2.26326C1.20804 1.63725 1.20803 1.0594 1.97851 1.1557C2.79714 1.25201 2.55637 1.87802 2.55637 2.60034C2.46006 4.67098 1.93036 6.78978 1.54512 8.76411C1.49696 9.00488 1.83405 9.10119 1.88221 8.86042C2.26745 6.98239 2.60453 5.10437 2.84531 3.22635C2.98977 2.1188 3.08608 0.914934 2.26744 0.0481537C2.21929 -7.35496e-07 2.17113 0 2.07482 0C0.67833 0.577854 0.244941 3.32266 0.00416575 4.57467C-0.0439893 4.81545 0.341242 4.91175 0.341242 4.67098Z" fill="#180E25"/>
</svg>
