<svg width="5" height="6" viewBox="0 0 5 6" fill="none" xmlns="http://www.w3.org/2000/svg">
<path d="M0.975286 5.63307C0.126184 4.67782 0.17925 3.24493 0.922214 2.23661C1.4529 1.44057 2.83269 0.485325 3.841 0.485325C4.05327 0.379187 4.26555 0.432269 4.42476 0.697616C4.37169 1.5998 3.89407 2.02433 2.88577 2.13046C2.56735 2.18353 2.46122 2.13049 2.19588 2.2897C1.77133 2.50198 1.55904 2.76732 1.50597 3.24494C1.45291 3.51029 1.82439 3.61643 1.87746 3.35109C1.93053 2.92653 2.9919 2.60811 3.31031 2.55505C3.46952 2.50198 3.62873 2.50197 3.73487 2.4489C4.00022 2.34276 4.21248 2.13048 4.42476 1.91821C4.79624 1.38751 4.95545 0.697597 4.6901 0.113833C4.63704 0.0607636 4.58397 0.0076877 4.5309 0.0076877C3.15111 -0.0984511 1.34678 0.909881 0.603814 2.07741C-0.192219 3.24493 -0.245297 4.89008 0.709942 5.95147C0.869148 6.11068 1.13449 5.84534 0.975286 5.63307Z" fill="#180E25"/>
</svg>
