<svg width="5" height="8" viewBox="0 0 5 8" fill="none" xmlns="http://www.w3.org/2000/svg">
<path d="M2.40048 7.85897C2.79019 6.83598 3.1312 5.76428 3.52091 4.74129C3.81319 3.96187 4.2029 3.08502 4.25162 2.25689C4.25162 1.2339 3.66705 0.600621 2.74148 0.259625C2.15691 0.0647698 0.549354 -0.276225 0.110928 0.405767C-0.424926 1.28261 1.13392 1.67232 1.52363 2.01332C1.71849 2.15946 1.96206 1.91589 1.7672 1.76975C2.15691 2.11075 1.18264 1.28261 1.32878 1.42876C1.18264 1.28261 0.792921 0.698049 1.03649 0.45448C1.18263 0.308339 1.96206 0.503193 2.1082 0.551906C3.17991 0.746761 3.95934 1.03904 3.81319 2.69531C3.66705 4.35158 2.59534 6.2027 2.05949 7.76154C2.01077 8.00511 2.35176 8.10254 2.40048 7.85897Z" fill="#180E25"/>
</svg>
