<svg width="25" height="38" viewBox="0 0 25 38" fill="none" xmlns="http://www.w3.org/2000/svg">
<path d="M11.9703 0.0815051C9.63683 5.22463 7.30337 10.3678 5.25565 15.6061C3.20792 20.8445 0.779224 26.6067 0.0649012 32.2261C-0.458936 36.2263 2.25549 37.4644 5.77949 37.7502C12.1132 38.3216 18.4468 37.7978 24.7805 37.3216C25.0186 37.3216 25.0186 36.9406 24.7805 36.9406C19.8278 37.3216 14.9228 37.7025 9.97018 37.5597C7.73197 37.512 5.01754 37.6549 2.87457 36.8453C-0.982776 35.3691 0.731603 30.7498 1.49355 27.7972C4.11273 18.2253 8.2558 9.17722 12.3036 0.176747C12.3513 0.0815037 12.0655 -0.108981 11.9703 0.0815051Z" fill="#180E25"/>
</svg>
