<svg width="15" height="12" viewBox="0 0 15 12" fill="none" xmlns="http://www.w3.org/2000/svg">
<path d="M0.280783 1.32285C0.856401 1.03504 1.43203 0.651296 2.05561 0.459423C2.48732 0.363487 2.91903 0.267551 3.35074 0.219582C4.26214 0.939105 5.17354 1.65863 6.08493 2.37815C6.51665 3.19361 6.37274 4.48875 6.51664 5.40015C6.75648 7.03106 6.94835 9.14167 8.14756 10.4368C10.45 13.0271 12.6566 10.7726 14.9111 9.71728C15.1029 9.62135 14.959 9.28557 14.7192 9.42947C13.9037 9.81322 13.1842 10.6767 12.3688 10.9645C9.77848 11.9238 8.14756 10.3409 7.42804 8.0384C6.80445 6.02373 7.14023 3.57735 6.22883 1.65863C4.98166 -0.931654 2.10358 0.0277111 0.0889136 1.08301C-0.102959 1.13098 0.0409426 1.46676 0.280783 1.32285Z" fill="#180E25"/>
</svg>
