<svg width="10" height="8" viewBox="0 0 10 8" fill="none" xmlns="http://www.w3.org/2000/svg">
<path d="M6.94607 0.286274C7.14849 0.741717 7.35091 1.09594 7.65454 1.45018C7.95817 1.75381 8.71724 2.05744 8.86905 2.31047C9.62812 3.77801 8.46421 4.13224 7.35091 4.53707C6.84486 4.73949 6.1364 4.99252 5.57974 5.09373C4.46644 5.24554 3.85918 4.48647 2.74588 4.58768C1.8856 4.68889 1.27834 5.24554 0.772292 5.8528C0.266245 6.46006 -0.442223 7.26973 0.367453 7.77578C0.569872 7.87699 1.32894 7.82639 1.37955 7.82639C2.29043 7.82639 2.84709 7.92759 3.75797 7.97819C4.71946 8.0794 4.97248 7.82638 5.93397 7.26973C6.13639 7.16852 5.93397 6.81428 5.73155 6.9661C4.56765 7.67457 3.80858 7.47214 2.59406 7.42154C2.13862 7.37093 0.620476 7.72517 0.418057 7.01671C0.367452 6.81429 1.22773 5.80219 1.32894 5.70098C3.04951 4.28404 3.65676 5.49857 4.97248 5.54917C5.78216 5.54917 6.84486 5.09373 7.60393 4.7901C8.3124 4.53707 9.83054 4.23344 9.88115 3.22135C9.88115 2.91772 9.72933 2.76591 9.57752 2.51288C8.86905 1.55139 7.70514 1.39957 7.09789 0.0838422C7.14849 -0.118577 6.84486 0.0838546 6.94607 0.286274Z" fill="#180E25"/>
</svg>
