<svg width="42" height="39" viewBox="0 0 42 39" fill="none" xmlns="http://www.w3.org/2000/svg">
<path d="M40.3018 13.7916C40.068 13.6514 39.694 13.6981 38.946 13.7449C36.8422 13.8851 35.5332 14.7734 33.1956 15.9889C32.1671 16.55 31.0918 17.0175 30.0165 17.5785C29.736 17.7187 27.5854 18.794 23.3311 20.8978C21.087 22.0199 17.3937 23.8432 11.877 26.508C12.9991 21.8796 14.1211 17.1577 15.2431 12.3424C16.0846 8.649 16.8794 4.95565 17.6742 1.30905C17.3937 1.02855 16.9729 0.701287 16.5054 0.46753C14.7756 -0.373992 12.9991 0.14027 12.4848 0.327275C12.1575 1.0753 11.5965 2.38433 10.942 3.97387C9.21221 8.04123 5.84612 15.8487 2.80729 23.8899C0.189223 30.8558 2.71378 24.8717 0.843735 30.5286C0.189217 32.5389 -0.278292 33.7544 0.18922 35.2037C0.750235 37.027 2.43327 37.962 2.66703 38.1023C3.83581 38.7568 4.9111 38.7101 6.31363 38.7101C12.0173 38.6633 5.47211 39.2243 12.8588 38.897C20.4325 38.523 24.2661 38.336 25.2011 38.0555C32.4476 35.9985 36.5617 30.2481 37.1694 29.3598C41.1433 23.2821 42.3588 14.9604 40.3018 13.7916Z" fill="#DEDC52"/>
</svg>
